<svg width="16" height="20" viewBox="0 0 16 20" fill="none" xmlns="http://www.w3.org/2000/svg">
<path d="M5.06667 4V7.79661H4.53333V4H5.06667Z" fill="white"/>
<path d="M5.06667 8.33898H4.53333V9.9661H5.06667V8.33898Z" fill="white"/>
<path fill-rule="evenodd" clip-rule="evenodd" d="M13.3333 0V2.64407H16C16 3.00844 15.9813 3.37059 15.9445 3.72881C15.7342 5.77468 14.9336 7.69234 13.6569 9.16383C13.459 9.39191 13.2518 9.6068 13.0363 9.80801C12.9758 9.99396 12.9062 10.1771 12.8277 10.3568L12.2371 11.7082C11.5658 13.2441 10.1492 14.2875 8.53333 14.4773V17.2881H7.46667V14.4773C5.85081 14.2875 4.43416 13.2441 3.76293 11.7082L3.17231 10.3568C3.09378 10.1771 3.02418 9.99396 2.96368 9.80801C2.74822 9.6068 2.54103 9.39191 2.34315 9.16383C1.06641 7.69234 0.265776 5.77468 0.055527 3.72881C0.0187135 3.37059 0 3.00844 0 2.64407H2.66667V0H13.3333ZM2.66667 3.72881L1.12864 3.72881C1.30292 5.24612 1.83914 6.66933 2.66667 7.83858V3.72881ZM13.3333 7.83858C14.1609 6.66933 14.6971 5.24612 14.8714 3.72881H13.3333V7.83858ZM3.73333 1.08475H12.2667V7.93375C12.2667 8.61674 12.1257 9.29213 11.853 9.91626L11.2623 11.2677C10.6893 12.5788 9.41084 13.4237 8 13.4237C6.58916 13.4237 5.31066 12.5788 4.73766 11.2677L4.14704 9.91626C3.87427 9.29214 3.73333 8.61674 3.73333 7.93375V1.08475Z" fill="white"/>
<path d="M6.93333 17.8305C6.59759 17.8305 6.28145 17.9913 6.08 18.2644L4.8 20H11.2L9.92 18.2644C9.71856 17.9913 9.40241 17.8305 9.06667 17.8305H6.93333Z" fill="white"/>
</svg>
