<svg width="24" height="24" viewBox="0 0 24 24" fill="none" xmlns="http://www.w3.org/2000/svg">
<path fill-rule="evenodd" clip-rule="evenodd" d="M12.2647 6.93506C12.2647 6.79161 12.1462 6.67532 12 6.67532C11.8538 6.67532 11.7353 6.79161 11.7353 6.93506V9.27405C10.1953 9.28945 8.75228 9.43883 7.5 9.68971V7.45455C7.5 7.31109 7.38149 7.19481 7.23529 7.19481C7.0891 7.19481 6.97059 7.31109 6.97059 7.45455V9.80444C4.57513 10.3645 3 11.3133 3 12.3896V18.6234C3 19.6232 3.83145 20.4778 5.54794 21.0723C7.27174 21.6693 9.59244 22 12 22C14.4076 22 16.7283 21.6693 18.4521 21.0723C20.1686 20.4778 21 19.6232 21 18.6234V12.6494V12.3896C21 11.3133 19.4249 10.3645 17.0294 9.80444V7.45455C17.0294 7.31109 16.9109 7.19481 16.7647 7.19481C16.6185 7.19481 16.5 7.31109 16.5 7.45455V9.68971C15.2477 9.43883 13.8047 9.28945 12.2647 9.27405V6.93506ZM11.7353 9.79356C10.1802 9.80943 8.73538 9.96466 7.5 10.2203V12.1299C7.5 12.2733 7.38149 12.3896 7.23529 12.3896C7.0891 12.3896 6.97059 12.2733 6.97059 12.1299V10.339C6.55479 10.4398 6.1672 10.5526 5.81224 10.6755C5.0306 10.9462 4.4357 11.2565 4.04645 11.5752C3.65423 11.8964 3.52941 12.174 3.52941 12.3896C3.52941 12.6052 3.65423 12.8828 4.04645 13.204C4.4357 13.5227 5.0306 13.833 5.81224 14.1037C7.37074 14.6435 9.55841 14.987 12 14.987C14.4416 14.987 16.6293 14.6435 18.1878 14.1037C18.9694 13.833 19.5643 13.5227 19.9535 13.204C20.3458 12.8828 20.4706 12.6052 20.4706 12.3896C20.4706 12.174 20.3458 11.8964 19.9535 11.5752C19.5643 11.2565 18.9694 10.9462 18.1878 10.6755C17.8328 10.5526 17.4452 10.4398 17.0294 10.339V12.1299C17.0294 12.2733 16.9109 12.3896 16.7647 12.3896C16.6185 12.3896 16.5 12.2733 16.5 12.1299V10.2203C15.2646 9.96466 13.8198 9.80943 12.2647 9.79356V11.6104C12.2647 11.7538 12.1462 11.8701 12 11.8701C11.8538 11.8701 11.7353 11.7538 11.7353 11.6104V9.79356ZM3.52941 18.6234V13.4454C4.77851 14.6472 8.09949 15.5065 12 15.5065C15.9005 15.5065 19.2215 14.6472 20.4706 13.4454V18.6234C20.4706 19.2768 19.935 20.0078 18.2759 20.5824C16.624 21.1545 14.3663 21.4805 12 21.4805C9.63367 21.4805 7.37599 21.1545 5.72414 20.5824C4.06497 20.0078 3.52941 19.2768 3.52941 18.6234Z" fill="white" stroke="white" stroke-width="0.5"/>
</svg>
