<svg width="20" height="22" viewBox="0 0 20 22" fill="none" xmlns="http://www.w3.org/2000/svg">
<path d="M17.0672 0.97338L17.6351 1.92196L17.7473 2.10936L17.961 2.15438L19.0379 2.38125L18.312 3.17166L18.1596 3.33757L18.1829 3.56164L18.2943 4.63206L17.2642 4.19045L17.0672 4.10599L16.8702 4.19045L15.8401 4.63206L15.9515 3.56164L15.9748 3.33757L15.8224 3.17166L15.0965 2.38125L16.1734 2.15438L16.3871 2.10936L16.4993 1.92196L17.0672 0.97338ZM3.59231 3.64444L3.70451 3.83184L3.91824 3.87686L4.67249 4.03576L4.16649 4.58668L4.01411 4.75259L4.03743 4.97666L4.11558 5.72755L3.38756 5.41545L3.19055 5.33099L2.99354 5.41545L2.26552 5.72755L2.34367 4.97666L2.36699 4.75259L2.21461 4.58668L1.70861 4.03576L2.46287 3.87686L2.67659 3.83184L2.78879 3.64444L3.19055 2.97338L3.59231 3.64444Z" fill="white" stroke="white"/>
</svg>
