<svg width="22" height="22" viewBox="0 0 22 22" fill="none" xmlns="http://www.w3.org/2000/svg">
<path fill-rule="evenodd" clip-rule="evenodd" d="M13.3575 0.0335787C13.2038 -0.0448165 13.017 0.0187354 12.9401 0.175526C12.8633 0.332316 12.9256 0.522972 13.0792 0.601367C13.435 0.782884 13.87 1.33146 13.7029 2.69838C13.5846 3.66584 13.1646 5.00562 12.2329 6.81863C10.4471 5.47859 8.71436 5.01041 7.80428 5.78965C7.37633 6.15608 7.18299 6.7532 7.20048 7.49382L2.34975 16.1877H2.33152L2.33165 16.2201L0.167758 20.0984C-0.40515 21.1252 0.586549 22.3237 1.67462 21.9196L15.295 16.86C14.9501 16.8377 14.5731 16.7494 14.1751 16.6004L10.3292 18.0291C8.93692 17.4141 5.99345 15.4738 5.46443 11.8883L7.33944 8.5278C7.66031 9.92155 8.52237 11.6008 9.82017 13.1791C12.2495 16.1334 15.2857 17.6148 16.6017 16.488C17.4113 15.7948 17.3812 14.2758 16.6724 12.5216C17.9979 11.961 18.9889 11.8417 19.7051 11.9429C20.757 12.0917 21.245 12.7182 21.3914 13.207C21.4416 13.3746 21.6155 13.469 21.7798 13.4178C21.9441 13.3666 22.0365 13.1891 21.9863 13.0215C21.7691 12.2961 21.0821 11.4968 19.7905 11.3141C18.9337 11.193 17.8255 11.3443 16.4176 11.9423C16.0053 11.0742 15.4389 10.1663 14.7366 9.28492L15.6038 8.48848C15.7315 8.37122 15.7418 8.17053 15.6269 8.04023C15.512 7.90993 15.3153 7.89937 15.1876 8.01664L14.3342 8.8004C13.8161 8.20169 13.2747 7.66959 12.7317 7.21461C13.7222 5.30674 14.1877 3.8604 14.3202 2.77697C14.5056 1.2608 14.0385 0.381067 13.3575 0.0335787ZM14.1385 13.1559C14.7491 12.7725 15.3185 12.4567 15.849 12.2006C15.4651 11.3965 14.9361 10.5452 14.2736 9.71014L12.4933 11.3451C12.3656 11.4624 12.1689 11.4518 12.054 11.3215C11.9391 11.1912 11.9494 10.9905 12.0771 10.8733L13.8718 9.22508C13.4015 8.68118 12.9143 8.19805 12.4285 7.78276C12.1031 8.37706 11.7296 9.01304 11.303 9.69327C11.2104 9.84092 11.018 9.88401 10.8733 9.78951C10.7286 9.69502 10.6864 9.49872 10.779 9.35108C11.2223 8.64423 11.6053 7.98931 11.9345 7.38311C11.445 7.00945 10.9634 6.7081 10.5091 6.48643C9.32333 5.90783 8.56036 5.97096 8.20416 6.27594C7.84796 6.58093 7.65455 7.3367 8.00705 8.62881C8.34301 9.86029 9.12571 11.347 10.2967 12.771C11.4678 14.1951 12.7666 15.2398 13.8968 15.7913C15.0826 16.3699 15.8456 16.3067 16.2018 16.0018C16.558 15.6968 16.7514 14.941 16.3989 13.6489C16.3231 13.3709 16.2245 13.08 16.1038 12.7797C15.6013 13.0229 15.0558 13.3252 14.4646 13.6965C14.3183 13.7884 14.1267 13.7419 14.0367 13.5926C13.9466 13.4433 13.9922 13.2478 14.1385 13.1559ZM2.47647 17.2436L0.70838 20.4125C0.421925 20.9259 0.917776 21.5251 1.46181 21.323L5.11767 19.965C4.70704 19.7777 4.24141 19.5214 3.81069 19.1744C3.23822 18.7132 2.71927 18.0843 2.47647 17.2436ZM5.99789 19.638C5.52484 19.4689 4.81385 19.1737 4.19617 18.6761C3.54817 18.1541 3.01697 17.4224 2.95889 16.3789L4.99527 12.7292C5.73146 15.7293 8.0251 17.5218 9.51564 18.3313L5.99789 19.638Z" fill="white"/>
<path fill-rule="evenodd" clip-rule="evenodd" d="M11.4186 3.62494L11.5195 2.74529L10.7891 3.22365L10.178 2.5947L10.0891 3.4757L9.22622 3.57107L9.8458 4.19129L9.38087 4.93916L10.2424 4.83157L10.5255 5.66878L10.9802 4.91439L11.7982 5.2105L11.5037 4.37739L12.2406 3.90942L11.4186 3.62494ZM11.518 3.99448L11.0804 3.84305L11.1342 3.37482L10.7453 3.62945L10.4201 3.29467L10.3728 3.76361L9.91345 3.81438L10.2432 4.14451L9.99576 4.5426L10.4543 4.48533L10.605 4.93096L10.8471 4.52941L11.2825 4.68703L11.1257 4.24357L11.518 3.99448Z" fill="white"/>
<path fill-rule="evenodd" clip-rule="evenodd" d="M19.1884 5.24432L18.8173 4.44372L18.4461 5.24432L17.6013 5.04125L17.9833 5.83651L17.301 6.38388L18.1485 6.57495L18.1425 7.46059L18.8173 6.9036L19.4921 7.46059L19.4861 6.57495L20.3336 6.38388L19.6512 5.83651L20.0332 5.04125L19.1884 5.24432ZM19.4645 5.50404L19.0148 5.61213L18.8173 5.18598L18.6197 5.61213L18.17 5.50404L18.3734 5.92735L18.0102 6.21871L18.4613 6.32042L18.4581 6.79183L18.8173 6.49535L19.1765 6.79183L19.1733 6.32042L19.6244 6.21871L19.2612 5.92735L19.4645 5.50404Z" fill="white"/>
<path d="M16.8309 10.4075C18.9636 8.71488 20.6049 9.3394 21.1066 9.766C21.2385 9.87822 21.4347 9.86002 21.5447 9.72536C21.6546 9.59069 21.6368 9.39055 21.5048 9.27833C20.7623 8.64692 18.7954 8.04414 16.449 9.90643C16.3134 10.014 16.2889 10.2135 16.3944 10.3518C16.4999 10.4902 16.6953 10.5151 16.8309 10.4075Z" fill="white"/>
<path fill-rule="evenodd" clip-rule="evenodd" d="M15.3957 5.71333C15.7393 5.71333 16.0178 5.42912 16.0178 5.07853C16.0178 4.72793 15.7393 4.44372 15.3957 4.44372C15.0521 4.44372 14.7736 4.72793 14.7736 5.07853C14.7736 5.42912 15.0521 5.71333 15.3957 5.71333ZM15.3957 5.39593C15.5675 5.39593 15.7068 5.25382 15.7068 5.07853C15.7068 4.90323 15.5675 4.76112 15.3957 4.76112C15.2239 4.76112 15.0847 4.90323 15.0847 5.07853C15.0847 5.25382 15.2239 5.39593 15.3957 5.39593Z" fill="white"/>
<path fill-rule="evenodd" clip-rule="evenodd" d="M19.7504 14.918C19.7504 15.4439 19.3327 15.8702 18.8173 15.8702C18.3019 15.8702 17.8841 15.4439 17.8841 14.918C17.8841 14.3921 18.3019 13.9658 18.8173 13.9658C19.3327 13.9658 19.7504 14.3921 19.7504 14.918ZM19.4394 14.918C19.4394 15.2686 19.1609 15.5528 18.8173 15.5528C18.4737 15.5528 18.1952 15.2686 18.1952 14.918C18.1952 14.5674 18.4737 14.2832 18.8173 14.2832C19.1609 14.2832 19.4394 14.5674 19.4394 14.918Z" fill="white"/>
<path d="M4.19617 18.6761C4.81385 19.1737 5.52484 19.4689 5.99789 19.638L9.51564 18.3313C8.0251 17.5218 5.73146 15.7293 4.99527 12.7292L2.95889 16.3789C3.01697 17.4224 3.54817 18.1541 4.19617 18.6761Z" fill="white"/>
</svg>
