<svg width="22" height="19" viewBox="0 0 22 19" fill="none" xmlns="http://www.w3.org/2000/svg">
<path fill-rule="evenodd" clip-rule="evenodd" d="M11.2445 2.47448C11.3663 1.11953 12.385 0.0145114 13.707 0.00108466C16.1226 -0.0234392 18.4984 0.371539 20.2162 0.816153C21.4238 1.1287 22.1184 2.33935 21.9833 3.61335L21.4045 9.07503C21.3758 9.34503 21.3175 9.61239 21.2086 9.85976C20.0944 12.39 17.6237 13.6813 15.8889 14.198C15.2405 14.3911 14.5546 14.1696 14.0792 13.6763C14.0141 13.6087 13.9502 13.5414 13.8876 13.4745C13.7851 13.3651 13.6861 13.2566 13.5903 13.1493C13.6084 12.3874 13.5117 11.5991 13.2518 10.8121L13.2586 10.8131L13.2647 10.8139L15.5578 11.0842L17.9446 11.4787C18.1619 11.5146 18.3324 11.291 18.2407 11.085C16.9261 8.13178 15.1444 8.03087 13.0893 10.3448C13.0687 10.368 13.0528 10.3931 13.0412 10.4192L10.8242 7.14584L11.2445 2.47448ZM20.3608 6.32724C20.1956 6.69184 19.4873 6.71176 18.7788 6.37173C18.0703 6.03169 17.6299 5.46045 17.7951 5.09585C17.9603 4.73124 18.6685 4.71133 19.377 5.05137C20.0855 5.3914 20.526 5.96263 20.3608 6.32724ZM13.8596 5.76014C14.6213 5.57916 15.1675 5.11466 15.0796 4.72267C14.9917 4.33068 14.3029 4.15965 13.5412 4.34064C12.7795 4.52164 12.2332 4.98612 12.3211 5.37811C12.4091 5.7701 13.0979 5.94115 13.8596 5.76014Z" fill="white"/>
<path d="M4.60254 12.7662C5.09271 12.1393 5.24321 11.4267 4.93872 11.1745C4.63419 10.9223 3.99 11.2259 3.49986 11.8527C3.00969 12.4795 2.85919 13.1921 3.16368 13.4444C3.46821 13.6966 4.1124 13.3929 4.60254 12.7662Z" fill="white"/>
<path d="M6.04741 15.8937C5.78684 15.8048 5.79521 15.3989 6.04558 15.2832C7.63135 14.5503 9.29587 13.0329 10.1518 12.1481C10.3273 11.9666 10.6408 12.0784 10.6548 12.3341C10.8575 16.0122 9.58111 17.0986 6.04741 15.8937Z" fill="white"/>
<path d="M8.19627 10.4883C8.95799 10.3073 9.50422 9.84285 9.41627 9.45086C9.32835 9.05887 8.63958 8.88784 7.87785 9.06882C7.11612 9.24983 6.56993 9.71431 6.65785 10.1063C6.74576 10.4983 7.43454 10.6693 8.19627 10.4883Z" fill="white"/>
<path fill-rule="evenodd" clip-rule="evenodd" d="M0.804334 8.95986C-0.183266 9.86456 -0.244918 11.3864 0.528733 12.4899L3.41589 16.6077C3.6026 16.8739 3.82923 17.1092 4.09882 17.2849C5.0445 17.9011 6.69503 18.7362 9.55409 18.9906C10.3947 19.0654 11.2217 18.6909 11.6585 17.9478C12.5943 16.3556 13.5022 13.8212 12.7438 11.2767C12.6735 11.0406 12.5585 10.8217 12.4213 10.6191L9.34805 6.08155C8.63598 5.03021 7.33926 4.588 6.22967 5.1696C4.65127 5.99694 2.60885 7.30687 0.804334 8.95986ZM6.48661 5.68888C4.9419 6.49856 2.94192 7.78188 1.18077 9.39516C0.440195 10.0736 0.359399 11.2525 0.987871 12.1489L3.87502 16.2666C4.02777 16.4845 4.20398 16.6637 4.40165 16.7925C5.27684 17.3627 6.84104 18.1643 9.60285 18.41C10.2569 18.4682 10.8628 18.1756 11.174 17.6462C12.0718 16.1186 12.8928 13.7637 12.2025 11.4476C12.1539 11.2844 12.0703 11.12 11.9568 10.9524L8.88356 6.41478C8.30723 5.56386 7.30595 5.25941 6.48661 5.68888Z" fill="white"/>
</svg>
