<svg width="30" height="30" viewBox="0 0 30 30" fill="none" xmlns="http://www.w3.org/2000/svg">
<path d="M16.1572 8.95451C16.6175 9.41484 17.3639 9.41484 17.8242 8.95451C18.2845 8.49418 18.2845 7.74784 17.8242 7.28751C17.3639 6.82718 16.6175 6.82718 16.1572 7.28751C15.6969 7.74784 15.6969 8.49418 16.1572 8.95451Z" fill="black"/>
<path d="M18.6577 11.455C19.118 11.9154 19.8644 11.9154 20.3247 11.455C20.785 10.9947 20.785 10.2483 20.3247 9.78802C19.8644 9.32769 19.118 9.32769 18.6577 9.78802C18.1974 10.2483 18.1974 10.9947 18.6577 11.455Z" fill="black"/>
<path d="M22.8252 13.9555C22.3649 14.4159 21.6186 14.4159 21.1582 13.9555C20.6979 13.4952 20.6979 12.7489 21.1582 12.2885C21.6186 11.8282 22.3649 11.8282 22.8252 12.2885C23.2856 12.7489 23.2856 13.4952 22.8252 13.9555Z" fill="black"/>
<path fill-rule="evenodd" clip-rule="evenodd" d="M0 18.3371L3.5724 21.9095C4.88587 21.1138 6.57835 21.2479 7.66526 22.3348C8.75217 23.4217 8.88624 25.1142 8.09063 26.4277L11.6629 30L30 11.6629L26.4277 8.09063C25.1142 8.88614 23.4218 8.75204 22.335 7.66517C21.2481 6.57831 21.114 4.88592 21.9095 3.57247L18.3371 0L0 18.3371ZM8.49876 21.5013C7.23274 20.2353 5.40491 19.9303 3.82267 20.4927L1.667 18.3371L18.3371 1.667L20.4928 3.82276C19.9305 5.40496 20.2355 7.2327 21.5015 8.49868C22.7675 9.76465 24.5952 10.0696 26.1774 9.50734L28.333 11.6629L11.6629 28.333L9.50736 26.1774C10.0697 24.5952 9.76479 22.7673 8.49876 21.5013Z" fill="black"/>
<path fill-rule="evenodd" clip-rule="evenodd" d="M3.82267 20.4927C5.40491 19.9303 7.23274 20.2353 8.49876 21.5013C9.76479 22.7673 10.0697 24.5952 9.50736 26.1774L11.6629 28.333L28.333 11.6629L26.1774 9.50734C24.5952 10.0696 22.7675 9.76465 21.5015 8.49868C20.2355 7.2327 19.9305 5.40496 20.4928 3.82276L18.3371 1.667L1.667 18.3371L3.82267 20.4927ZM16.1572 8.95451C16.6175 9.41484 17.3639 9.41484 17.8242 8.95451C18.2845 8.49418 18.2845 7.74784 17.8242 7.28751C17.3639 6.82718 16.6175 6.82718 16.1572 7.28751C15.6969 7.74784 15.6969 8.49418 16.1572 8.95451ZM18.6577 11.455C19.118 11.9154 19.8644 11.9154 20.3247 11.455C20.785 10.9947 20.785 10.2483 20.3247 9.78802C19.8644 9.32769 19.118 9.32769 18.6577 9.78802C18.1974 10.2483 18.1974 10.9947 18.6577 11.455ZM22.8252 13.9555C22.3649 14.4159 21.6186 14.4159 21.1582 13.9555C20.6979 13.4952 20.6979 12.7489 21.1582 12.2885C21.6186 11.8282 22.3649 11.8282 22.8252 12.2885C23.2856 12.7489 23.2856 13.4952 22.8252 13.9555Z" fill="white"/>
</svg>
